<svg width="503" height="331" viewBox="0 0 503 331" fill="none" xmlns="http://www.w3.org/2000/svg">
<g clip-path="url(#clip0_165_261)">
<path d="M400.122 63.3254C385.73 47.9531 374.589 29.6026 357.388 17.0575C330.368 -2.68849 291.482 -4.61405 259.889 7.79089C228.296 20.1952 203.684 45.1994 187.463 73.5123C178.93 88.4086 172.227 104.658 159.724 116.831C149.154 127.115 135.261 133.677 122.089 140.823C100.852 152.314 80.3999 166.199 66.6563 185.251C52.914 204.303 46.7696 229.325 55.5546 250.796C61.4787 265.283 73.4114 276.811 85.6358 287.248C100.022 299.519 115.484 311.009 133.328 318.32C155.668 327.417 180.467 329.373 204.787 330.298C247.901 331.933 291.084 330.711 334.016 326.643C369.171 323.316 405.39 317.638 434.804 299.256C476.006 273.515 497.25 226.352 502.033 180.103C503.979 161.606 503.486 142.383 495.881 125.22C477.694 84.1681 428.62 93.7699 400.121 63.3254H400.122Z" fill="#EFF1F7"/>
<path d="M122.365 138.947C122.365 138.947 110.974 136.924 107.783 144.901C104.592 152.877 107.783 180.427 107.783 180.427L150.282 210.824L122.365 138.947Z" fill="#3F3D56"/>
<path d="M175.811 260.767L158.961 265.579C156.513 266.273 153.945 264.926 153.216 262.567C152.498 260.206 153.893 257.729 156.338 257.026L173.166 252.21C175.612 251.516 178.18 252.86 178.911 255.217C179.637 257.574 178.252 260.055 175.811 260.767Z" fill="#2BD0D0"/>
<path d="M174.986 278.809C179.155 278.809 182.535 275.427 182.535 271.255C182.535 267.083 179.155 263.701 174.986 263.701C170.818 263.701 167.438 267.083 167.438 271.255C167.438 275.427 170.818 278.809 174.986 278.809Z" fill="#25233A"/>
<path d="M173.957 276.749C176.042 276.749 177.731 275.058 177.731 272.972C177.731 270.886 176.042 269.195 173.957 269.195C171.873 269.195 170.183 270.886 170.183 272.972C170.183 275.058 171.873 276.749 173.957 276.749Z" fill="#3F3D56"/>
<path d="M144.107 271.255C148.275 271.255 151.655 267.873 151.655 263.701C151.655 259.529 148.275 256.147 144.107 256.147C139.938 256.147 136.558 259.529 136.558 263.701C136.558 267.873 139.938 271.255 144.107 271.255Z" fill="#25233A"/>
<path d="M146.851 264.045C146.851 265.046 146.454 266.007 145.746 266.715C145.038 267.424 144.078 267.822 143.077 267.822C142.076 267.822 141.116 267.424 140.408 266.715C139.701 266.007 139.303 265.046 139.303 264.045C139.303 263.043 139.701 262.082 140.408 261.374C141.116 260.665 142.076 260.268 143.077 260.268C144.078 260.268 145.038 260.665 145.746 261.374C146.454 262.082 146.851 263.043 146.851 264.045Z" fill="url(#paint0_linear_165_261)"/>
<path d="M142.048 281.556C146.217 281.556 149.596 278.174 149.596 274.002C149.596 269.83 146.217 266.448 142.048 266.448C137.879 266.448 134.5 269.83 134.5 274.002C134.5 278.174 137.879 281.556 142.048 281.556Z" fill="#25233A"/>
<path d="M148.224 274.346C148.224 275.347 147.826 276.308 147.118 277.016C146.41 277.725 145.45 278.123 144.45 278.123C143.449 278.123 142.489 277.725 141.781 277.016C141.073 276.308 140.675 275.347 140.675 274.346C140.675 273.344 141.073 272.383 141.781 271.675C142.489 270.967 143.449 270.569 144.45 270.569C145.45 270.569 146.41 270.967 147.118 271.675C147.826 272.383 148.224 273.344 148.224 274.346Z" fill="#3F3D56"/>
<path d="M176.417 268.422L141.566 261.523C139.114 261.031 137.528 258.687 138.02 256.279C138.522 253.876 140.909 252.321 143.362 252.8L178.213 259.686C180.666 260.178 182.251 262.522 181.759 264.93C181.263 267.339 178.875 268.9 176.417 268.422Z" fill="#2BD0D0"/>
<path d="M155.086 212.884H164.693V253.4C164.693 256.055 162.543 258.207 159.892 258.207C158.618 258.207 157.397 257.7 156.496 256.799C155.596 255.897 155.091 254.675 155.091 253.4V212.884H155.086Z" fill="#2BD0D0"/>
<path d="M158.645 265.561L141.808 270.385C139.359 271.081 136.789 269.733 136.061 267.372C135.342 265.009 136.738 262.53 139.181 261.827L156.019 257.017C158.465 256.323 161.031 257.668 161.762 260.025C162.475 262.384 161.082 264.856 158.645 265.56V265.561Z" fill="#2BD0D0"/>
<path d="M161.948 265.253L159.804 265.632C159.153 265.745 158.491 265.784 157.831 265.75L158.726 265.593C159.319 265.494 159.898 265.32 160.447 265.075L161.948 265.253Z" fill="url(#paint1_linear_165_261)"/>
<path d="M179.104 255.967C179.106 257.028 178.753 258.058 178.102 258.894L164.007 255.907C164.363 255.397 164.619 254.823 164.76 254.216L173.444 251.522C174.003 251.353 174.591 251.302 175.171 251.37C175.751 251.438 176.311 251.626 176.815 251.92C177.844 252.515 178.605 253.516 178.931 254.7C179.043 255.112 179.102 255.539 179.104 255.967Z" fill="url(#paint2_linear_165_261)"/>
<path opacity="0.31" d="M154.551 254.845C154.451 254.492 154.4 254.127 154.4 253.76V213.571H158.478V256.882C158.438 257.095 158.451 257.313 158.517 257.521C157.889 257.302 157.23 257.184 156.565 257.17C156.091 257.142 155.615 257.142 155.14 257.17L155.432 257.101C155.612 257.074 154.786 255.665 154.551 254.845Z" fill="url(#paint3_linear_165_261)"/>
<path opacity="0.31" d="M179.988 267.684C179.323 268.043 178.574 268.232 177.813 268.231C177.507 268.23 177.201 268.2 176.9 268.142L161.524 265.116L160.243 264.867C159.803 265.196 159.307 265.441 158.779 265.591L158.018 265.809L142.217 270.387C139.806 271.078 137.275 269.739 136.558 267.391C137.928 268.631 140.009 268.746 141.515 267.666C143.444 266.364 151.123 264.409 155.473 263.37C157.529 262.89 159.102 261.275 159.486 259.249C159.497 259.131 159.515 259.012 159.541 258.894C160.266 259.659 161.598 260.516 164.005 261.245C169.934 263.023 179.559 264.201 179.559 264.201C179.559 264.201 181.297 265.862 179.988 267.684Z" fill="url(#paint4_linear_165_261)"/>
<path d="M181.162 266.448C180.795 266.988 180.329 267.454 179.79 267.822C180.253 267.369 180.71 266.911 181.162 266.448Z" fill="url(#paint5_linear_165_261)"/>
<path d="M155.292 254.471C155.484 255.278 155.886 256.02 156.458 256.621C156.314 256.647 156.167 256.684 156.019 256.724L141.422 260.954C139.177 260.396 137.699 258.3 137.961 256.047C138.222 253.795 140.144 252.077 142.46 252.027C142.771 252.028 143.081 252.058 143.386 252.118L155.292 254.471Z" fill="url(#paint6_linear_165_261)"/>
<path d="M177.731 61.3977C177.731 61.3977 177.542 47.1105 166.014 48.3432C154.485 49.5745 155.37 44.8443 150.446 45.3635C145.522 45.8833 139.802 50.7103 141.445 56.6724C143.088 62.6345 137.099 63.9675 133.166 68.4909C129.232 73.0143 134.092 76.7151 140.719 81.1376C147.345 85.5601 140.307 84.4153 144.235 91.4075C148.165 98.399 161.464 89.4675 161.464 89.4675L177.731 61.3977Z" fill="#503164"/>
<path d="M84.1747 298.45L92.224 298.724V234.347C92.224 234.347 92.6289 217.7 108.317 216.03C124.005 214.361 266.283 193.735 266.283 193.735C266.283 193.735 271.922 193.138 275.17 203.968C278.418 214.798 281.579 257.386 281.579 257.386L325.25 263.276C325.25 263.276 326.403 188.046 310.632 183.895C294.862 179.743 88.6248 200.898 88.6248 200.898C88.6248 200.898 73.329 280.799 84.1747 298.45Z" fill="#2BD0D0"/>
<path opacity="0.197" d="M84.1747 298.45L92.224 298.724V234.347C92.224 234.347 92.6289 217.7 108.317 216.03C124.005 214.361 266.283 193.735 266.283 193.735C266.283 193.735 271.922 193.138 275.17 203.968C278.418 214.798 281.579 257.386 281.579 257.386L325.25 263.276C325.25 263.276 326.403 188.046 310.632 183.895C294.862 179.743 88.6248 200.898 88.6248 200.898C88.6248 200.898 73.329 280.799 84.1747 298.45Z" fill="url(#paint7_linear_165_261)"/>
<path d="M42.5459 208.615C42.5459 208.615 46.4875 186.808 74.2109 181.092L269.909 158.675C269.909 158.675 289.121 157.879 297.91 163.199C306.699 168.518 319.243 172.928 324.386 197.001C329.53 221.075 330.759 262.2 330.759 262.2L325.893 262.955C325.893 262.955 318.792 188.487 311.269 183.772C303.746 179.058 100.323 207.983 100.323 207.983C100.323 207.983 86.2136 210.79 84.9846 231.697C83.7562 252.602 84.9846 298.037 84.9846 298.037L42.5459 280.908V208.615Z" fill="#2BD0D0"/>
<path opacity="0.19" d="M243.9 167.453C233.77 166.148 223.558 165.203 213.35 165.585C205.678 165.883 198.057 166.935 190.45 167.984L123.354 177.257C122.215 177.415 120.918 177.671 120.349 178.66C119.256 180.55 121.824 182.413 123.905 183.132C146.214 190.862 170.048 198.691 193.013 193.179C203.512 190.66 213.264 185.427 223.913 183.61C234.562 181.792 245.494 183.465 256.12 181.751C266.109 180.141 275.62 175.565 285.745 175.52C288.85 175.52 292.047 175.916 294.992 174.944C297.938 173.972 300.542 171.003 299.727 168.042C290.221 167.714 279.549 165.977 270.225 167.862C260.996 169.725 253.142 167.453 243.9 167.453Z" fill="url(#paint8_linear_165_261)"/>
<path d="M183.221 178.122L183.612 179.574C183.612 179.574 195.196 186.56 195.124 186.785C195.051 187.01 243.176 175.633 243.176 175.633L244.295 172.367L183.221 178.122Z" fill="#2BD0D0"/>
<path d="M183.221 178.122L183.612 179.574C183.612 179.574 195.196 186.56 195.124 186.785C195.051 187.01 243.176 175.633 243.176 175.633L244.295 172.367L183.221 178.122Z" fill="url(#paint9_linear_165_261)"/>
<path d="M183.907 178.111L226.526 168.934L244.295 172.404L195.876 184.041L183.907 178.111Z" fill="#2BD0D0"/>
<path d="M183.907 178.111L226.526 168.934L244.295 172.404L195.876 184.041L183.907 178.111Z" fill="url(#paint10_linear_165_261)"/>
<path d="M170.068 185.747L179.988 186.099C179.988 186.099 182.508 186.256 183.159 184.233C183.811 182.211 179.117 177.943 178.615 177.862C178.112 177.781 165.055 181.447 166.937 185.111L170.068 185.747Z" fill="#2BD0D0"/>
<path d="M170.068 185.747L179.988 186.099C179.988 186.099 182.508 186.256 183.159 184.233C183.811 182.211 179.117 177.943 178.615 177.862C178.112 177.781 165.055 181.447 166.937 185.111L170.068 185.747Z" fill="url(#paint11_linear_165_261)"/>
<path d="M54.2114 285.715L49.3681 300.601C35.3191 305.649 23.374 300.601 23.374 300.601L19.9004 284.99C19.9004 284.99 37.423 290.868 54.2114 285.715Z" fill="#2BD0D0"/>
<path d="M54.2114 285.715L49.3681 300.601C35.3191 305.649 23.374 300.601 23.374 300.601L19.9004 284.99C19.9004 284.99 37.423 290.868 54.2114 285.715Z" fill="url(#paint12_linear_165_261)"/>
<path d="M59.7013 271.942L58.134 283.577L54.1635 285.643C37.2495 290.738 19.5677 284.93 19.5677 284.93L16.5188 282.675L15.0969 271.942H59.7013Z" fill="#2BD0D0"/>
<path d="M59.7013 271.942L58.134 283.577L54.1635 285.643C37.2495 290.738 19.5677 284.93 19.5677 284.93L16.5188 282.675L15.0969 271.942H59.7013Z" fill="url(#paint13_linear_165_261)"/>
<path d="M37.3991 275.375C49.7163 275.375 59.7013 273.531 59.7013 271.255C59.7013 268.98 49.7163 267.135 37.3991 267.135C25.082 267.135 15.0969 268.98 15.0969 271.255C15.0969 273.531 25.082 275.375 37.3991 275.375Z" fill="#2BD0D0"/>
<path d="M37.3991 275.375C49.7163 275.375 59.7013 273.531 59.7013 271.255C59.7013 268.98 49.7163 267.135 37.3991 267.135C25.082 267.135 15.0969 268.98 15.0969 271.255C15.0969 273.531 25.082 275.375 37.3991 275.375Z" fill="url(#paint14_linear_165_261)"/>
<path d="M27.2025 182.002C25.0189 180.961 22.6713 180.177 20.7822 178.658C16.9757 175.567 16.0109 170.247 14.8189 165.474C13.6276 160.7 11.3212 155.453 6.62269 154.083C4.8646 153.577 2.8025 153.778 1.46574 155.038C0.0569307 156.365 -0.229223 158.547 0.156433 160.472C0.541403 162.398 1.47947 164.123 2.2048 165.948C3.89799 170.191 4.413 174.812 3.69528 179.324C3.10169 183.024 1.68327 186.775 2.59389 190.403C4.13926 196.559 11.8373 200.168 12.05 206.512C12.1955 210.792 8.69783 214.753 9.49041 218.965C10.0751 222.082 12.9249 224.514 13.0793 227.681C13.2509 231.273 9.88019 234.312 10.0435 237.903C10.2061 241.495 13.7676 243.895 16.0925 246.72C18.0429 249.097 19.2012 252.024 19.4049 255.093C19.5271 257.01 19.2821 258.995 19.9031 260.811C20.356 262.139 21.2618 263.266 21.9645 264.462C22.74 265.753 23.3239 267.15 24.2572 268.345C25.4251 269.833 27.0142 270.934 28.8168 271.503C30.6195 272.073 32.5519 272.086 34.3618 271.539C35.0823 266.767 34.4524 261.898 34.6521 257.074C35.046 247.728 38.5574 238.31 36.31 229.237C35.4858 225.911 33.9 222.753 33.6186 219.34C33.3695 216.291 34.1758 213.27 34.7379 210.263C35.8976 204.053 35.8797 197.632 35.4035 191.352C35.0281 186.369 31.5476 184.074 27.2025 182.002Z" fill="#2BD0D0"/>
<path d="M41.0032 206.543C40.9668 210.706 41.9158 215.011 40.5832 218.963C39.5745 221.958 37.3566 224.411 36.2113 227.357C33.5693 234.154 37.124 241.778 36.3986 249.036C36.0967 252.026 35.0701 254.899 34.4223 257.835C33.6175 261.552 33.4203 265.376 33.8383 269.156C33.7959 269.845 34.0033 270.526 34.4225 271.073C34.8417 271.621 35.4445 271.999 36.12 272.138C38.3562 272.99 40.6724 273.614 43.0337 274.002C42.2354 269.601 43.0764 265.059 45.3977 261.236C49.0169 255.31 56.0492 251.316 57.3586 244.508C58.2438 239.899 56.1817 235.221 56.3279 230.53C56.4332 227.407 57.5082 224.396 59.4035 221.913C61.1053 219.697 63.4103 217.983 64.9941 215.684C68.7999 210.145 67.6134 202.741 66.4819 196.117C65.3496 189.492 64.6929 181.869 69.165 176.85C70.58 175.263 72.4232 174.072 73.7057 172.377C76.5624 168.597 75.8412 162.774 72.5186 159.396C69.1972 156.018 63.8481 155.084 59.3308 156.57C57.4256 157.13 55.7435 158.273 54.5203 159.839C52.2387 163.076 53.1513 167.498 54.1189 171.346C54.963 174.688 55.643 178.545 54.4888 181.915C53.6262 184.422 51.4399 185.781 49.5823 187.527C46.9506 189.958 44.8348 192.895 43.3609 196.162C41.887 199.429 41.0852 202.96 41.0032 206.543Z" fill="#2BD0D0"/>
<path d="M36.4124 243.458C35.7687 247.986 34.8396 252.55 34.6488 257.09V257.547C34.639 257.659 34.6133 257.77 34.5727 257.876C33.7686 261.597 33.5679 265.423 33.9784 269.207C34.0031 269.821 34.1575 270.421 34.4313 270.969C34.4093 271.161 34.3819 271.348 34.3551 271.539C32.5447 272.086 30.6116 272.073 28.8084 271.503C27.0051 270.934 25.4155 269.833 24.2471 268.345C23.3413 267.149 22.7285 265.752 21.9537 264.461C21.2284 263.261 20.3446 262.133 19.8916 260.81C19.2706 258.984 19.5149 257.008 19.3928 255.092C19.1893 252.022 18.0307 249.094 16.0797 246.717C13.7541 243.91 10.1871 241.555 10.0286 237.904C9.87007 234.253 13.2374 231.273 13.0651 227.681C12.9114 224.513 10.0602 222.081 9.47618 218.964C8.68222 214.751 12.195 210.79 12.0365 206.509C11.8237 200.165 4.12297 196.555 2.57692 190.398C1.6711 186.77 3.08472 183.018 3.6783 179.318C4.3996 174.812 3.89079 170.194 2.20567 165.954C1.48033 164.129 0.54227 162.408 0.156614 160.477C-0.228356 158.548 0.0571123 156.37 1.46661 155.037C2.8267 153.778 4.86615 153.577 6.62493 154.083C11.3297 155.453 13.6271 160.72 14.8239 165.493C16.0207 170.267 16.9814 175.584 20.7885 178.678C22.6702 180.207 25.0266 180.983 27.2116 182.024C31.5622 184.096 35.0434 186.391 35.4153 191.329C35.8682 197.609 35.9094 204.031 34.7497 210.242C34.187 213.25 33.3896 216.271 33.6298 219.32C33.87 222.369 35.1889 225.253 36.0501 228.21C36.1455 228.543 36.2402 228.881 36.3218 229.219C37.4644 233.915 37.0973 238.666 36.4124 243.458Z" fill="#30C59B"/>
<path d="M34.1176 270.568C33.9102 270.022 33.7938 269.444 33.7731 268.86C33.4781 265.179 33.6249 261.457 34.2103 257.84C34.226 257.734 34.2459 257.627 34.2652 257.521C34.1478 261.879 34.5218 266.272 34.1176 270.568Z" fill="url(#paint15_linear_165_261)"/>
<path d="M73.6953 172.377C72.4114 174.073 70.5648 175.263 69.1477 176.85C64.6688 181.865 65.3268 189.492 66.4605 196.117C67.5934 202.741 68.782 210.145 64.97 215.685C63.3848 217.965 61.0764 219.697 59.3711 221.913C57.4731 224.394 56.396 227.407 56.29 230.53C56.1445 235.221 58.2101 239.899 57.3235 244.508C56.0121 251.316 48.9687 255.319 45.3441 261.237C43.0283 265.062 42.1924 269.603 42.9945 274.002C40.6357 273.615 38.3219 272.99 36.0883 272.138C35.478 271.957 34.9242 271.622 34.4798 271.166C34.4167 271.092 34.36 271.013 34.3103 270.929C34.0271 270.386 33.8636 269.789 33.8307 269.178C33.4196 265.397 33.6248 261.574 34.4387 257.858C34.4613 257.748 34.4888 257.639 34.5162 257.53C35.1654 254.707 36.1254 251.94 36.4177 249.058C36.5732 247.19 36.5364 245.311 36.3079 243.451C36.9983 238.663 37.3681 233.918 36.2029 229.257C36.1206 228.921 36.0245 228.583 35.9285 228.25C36.0156 227.958 36.1158 227.666 36.2304 227.379C37.3778 224.434 39.599 221.982 40.6085 218.985C41.9391 215.033 40.9928 210.729 41.0291 206.566C41.0888 199.376 44.3388 192.433 49.5582 187.527C51.4178 185.781 53.6076 184.423 54.4715 181.915C55.6278 178.545 54.9285 174.688 54.101 171.346C53.1279 167.498 52.2042 163.076 54.5038 159.839C55.6463 158.234 57.4477 157.19 59.321 156.57C63.8275 155.083 69.2074 156.018 72.5301 159.397C75.8528 162.775 76.5569 168.619 73.6953 172.377Z" fill="#30C59B"/>
<path d="M154.793 100.362C154.793 100.362 135.704 103.315 126.875 124.381C118.045 145.448 122.637 171.547 122.791 173.844C122.945 176.14 149.847 186.102 157.538 186.102C165.229 186.102 166.831 178.39 166.831 178.39L153.241 172.599L194.531 167.827H201.945L197.861 174.717C197.861 174.717 205.92 175.561 211.306 175.754C216.691 175.947 220.349 165.289 220.952 159.988C221.556 154.688 197.163 108.169 193.519 105.414C189.875 102.658 179.989 95.9255 154.793 100.362Z" fill="#2BD0D0"/>
<path d="M177.314 60.9645C177.314 60.9645 180.767 62.9079 180.457 69.1948C180.146 75.4818 178.199 84.9427 176.235 87.393C174.269 89.8446 167.396 90.8046 167.396 90.8046C167.396 90.8046 171.146 99.7162 173.936 102.016C176.726 104.316 171.132 112.789 165.691 110.009C160.25 107.228 153.943 100.246 153.943 100.246C153.943 100.246 158.48 91.8374 156.946 87.4115C155.412 82.9856 149.554 67.4526 153.943 63.21C158.332 58.9661 167.795 52.8852 177.314 60.9645Z" fill="url(#paint16_linear_165_261)"/>
<path opacity="0.25" d="M147.081 130.477L144.106 167.598L153.191 172.367L160.576 171.078L151.361 159.744L147.081 130.477ZM194.887 128.417C194.887 128.417 207.176 157.312 201.728 167.56L197.531 166.764L194.887 128.417Z" fill="white"/>
<path d="M161.62 177.205C161.62 177.205 156.977 181.171 159.05 184.256C161.122 187.34 163.596 187.252 165.659 185.873C167.721 184.493 171.773 181.22 176.601 182.722C181.429 184.225 182.601 185.181 182.601 185.181C182.601 185.181 185.144 183.59 184.484 181.995C183.824 180.4 178.775 175.231 177.312 174.561C175.849 173.892 169.775 175.949 169.775 175.949C169.775 175.949 165.313 174.741 161.62 177.205Z" fill="url(#paint17_linear_165_261)"/>
<path d="M202.566 168.658C202.566 168.658 198.185 169.179 197.078 172.062C195.971 174.945 195.573 175.296 195.573 175.296C195.573 175.296 198.048 175.77 199.077 174.428C200.106 173.086 201.176 173.65 201.176 173.65L200.869 175.372C200.869 175.372 207.593 176.386 210.63 175.296C213.667 174.205 214.97 172.925 214.97 172.925L216.16 170.013C216.16 170.013 213.291 167.933 211.128 167.61C208.965 167.287 202.566 168.658 202.566 168.658Z" fill="url(#paint18_linear_165_261)"/>
<path d="M225.693 199.149C225.693 199.149 240.745 210.609 239.407 226.109C238.069 241.61 236.104 264.626 236.104 264.626C236.104 264.626 230.034 267.182 226.012 264.626C221.989 262.07 219.554 227.096 217.561 223.757C215.568 220.417 203.579 205.359 190.77 204.062L225.693 199.149Z" fill="#25233A"/>
<path d="M150.282 210.177C150.282 210.177 157.449 216.972 170.225 219.106C183.002 221.239 188.957 223.02 192.862 233.942C196.766 244.865 200.512 268.372 201.738 271C202.964 273.627 208.176 272.287 208.176 272.287C208.176 272.287 211.124 268.925 211.124 250.233C211.124 224.175 212.946 218.834 206.38 212.288C199.815 205.741 193.842 203.957 193.842 203.957L150.282 210.177Z" fill="#3F3D56"/>
<path d="M201.749 271.942L202.998 281.691H205.337C205.337 281.691 220.398 282.506 220.87 282.155C221.342 281.803 220.145 274.434 214.439 274.642C208.732 274.851 208.358 273.253 208.358 273.253L201.749 271.942ZM227.139 265.182L229.553 274.689L255.93 271.11C255.93 271.11 256.858 264.865 248.503 265.485C246.297 265.645 244.654 267.177 242.003 267.191C239.353 267.205 236.814 266.132 235.477 264.388L227.139 265.182Z" fill="#25233A"/>
<path d="M316.9 145.817L219.29 151.073C216.929 151.197 214.914 149.376 214.787 147.003V77.2377C214.789 74.4215 217.029 72.123 219.83 72.0633L317.04 70.0464C317.658 70.0339 318.273 70.1438 318.848 70.3697C319.424 70.5956 319.949 70.9331 320.393 71.3628C321.294 72.2331 321.813 73.425 321.838 74.6776V140.583C321.834 143.368 319.667 145.666 316.9 145.817Z" fill="#2BD0D0"/>
<path d="M322.39 145.817L224.775 151.073C222.414 151.195 220.402 149.372 220.277 146.998V77.2378C220.274 74.4209 222.514 72.1204 225.315 72.0634L322.539 70.0465C325.131 69.9984 327.273 72.0675 327.328 74.6736V140.583C327.324 143.369 325.156 145.667 322.39 145.817Z" fill="#2BD0D0"/>
<path d="M322.39 145.817L224.775 151.073C222.414 151.195 220.402 149.372 220.277 146.998V77.2378C220.274 74.4209 222.514 72.1204 225.315 72.0634L322.539 70.0465C325.131 69.9984 327.273 72.0675 327.328 74.6736V140.583C327.324 143.369 325.156 145.667 322.39 145.817Z" fill="url(#paint19_linear_165_261)"/>
<path d="M293.547 172.462L268.64 175.114C268.64 175.114 261.056 173.583 261.466 172.462C261.877 171.341 269.808 170.261 269.808 170.261V125.072C269.739 124.972 268.695 123.641 265.835 122.793C265.281 122.629 264.718 122.498 264.148 122.401C263.658 122.33 263.181 122.185 262.734 121.973C261.033 121.094 262.913 119.563 265.552 119.494C265.966 119.479 266.38 119.504 266.789 119.567H285.944C285.944 119.567 293.196 121.608 293.547 131.798C293.898 141.988 293.547 172.462 293.547 172.462Z" fill="#3A3054"/>
<path d="M273.116 172.558L268.533 175.114C268.533 175.114 261.062 173.583 261.466 172.461C261.871 171.341 269.697 170.26 269.697 170.26V125.068C269.603 124.964 268.457 123.765 265.784 122.789C264.789 122.434 263.767 122.16 262.729 121.969C261.053 121.09 262.904 119.558 265.505 119.49C267.72 119.795 272.083 122.256 272.366 123.66C272.649 125.064 273.116 172.558 273.116 172.558Z" fill="#51466B"/>
<path d="M180.476 267.135C179.872 267.822 179.591 268.076 179.948 267.51C180.133 267.401 180.309 267.276 180.476 267.135Z" fill="url(#paint20_linear_165_261)"/>
</g>
<defs>
<linearGradient id="paint0_linear_165_261" x1="139.303" y1="637.965" x2="894.146" y2="637.965" gradientUnits="userSpaceOnUse">
<stop stop-color="#183866"/>
<stop offset="1" stop-color="#1A7FC1"/>
</linearGradient>
<linearGradient id="paint1_linear_165_261" x1="157.296" y1="299.469" x2="569.563" y2="299.469" gradientUnits="userSpaceOnUse">
<stop/>
<stop offset="0.99" stop-opacity="0"/>
</linearGradient>
<linearGradient id="paint2_linear_165_261" x1="2822.14" y1="-4024.18" x2="4577.46" y2="-3203.84" gradientUnits="userSpaceOnUse">
<stop/>
<stop offset="0.99" stop-opacity="0"/>
</linearGradient>
<linearGradient id="paint3_linear_165_261" x1="397.026" y1="-11125.5" x2="156.046" y2="-11191.1" gradientUnits="userSpaceOnUse">
<stop/>
<stop offset="0.99" stop-opacity="0"/>
</linearGradient>
<linearGradient id="paint4_linear_165_261" x1="6992.15" y1="-479.774" x2="1074.31" y2="-2411.49" gradientUnits="userSpaceOnUse">
<stop/>
<stop offset="0.99" stop-opacity="0"/>
</linearGradient>
<linearGradient id="paint5_linear_165_261" x1="3420.19" y1="-22512" x2="3147.87" y2="-22597.9" gradientUnits="userSpaceOnUse">
<stop/>
<stop offset="0.99" stop-opacity="0"/>
</linearGradient>
<linearGradient id="paint6_linear_165_261" x1="4610.38" y1="-3551.5" x2="2706.29" y2="-3045.64" gradientUnits="userSpaceOnUse">
<stop/>
<stop offset="0.99" stop-opacity="0"/>
</linearGradient>
<linearGradient id="paint7_linear_165_261" x1="26256.5" y1="2779.4" x2="-8632.38" y2="1101.11" gradientUnits="userSpaceOnUse">
<stop/>
<stop offset="1" stop-opacity="0"/>
</linearGradient>
<linearGradient id="paint8_linear_165_261" x1="2667.53" y1="-1055.1" x2="20646.4" y2="-1055.1" gradientUnits="userSpaceOnUse">
<stop stop-color="#183866"/>
<stop offset="1" stop-color="#1A7FC1"/>
</linearGradient>
<linearGradient id="paint9_linear_165_261" x1="2649.74" y1="742.214" x2="2866.81" y2="1585.06" gradientUnits="userSpaceOnUse">
<stop/>
<stop offset="0.99" stop-opacity="0"/>
</linearGradient>
<linearGradient id="paint10_linear_165_261" x1="-572.808" y1="847.625" x2="5283.83" y2="2720.25" gradientUnits="userSpaceOnUse">
<stop/>
<stop offset="0.99" stop-opacity="0"/>
</linearGradient>
<linearGradient id="paint11_linear_165_261" x1="1051.17" y1="526.202" x2="1007.96" y2="857.807" gradientUnits="userSpaceOnUse">
<stop/>
<stop offset="0.99" stop-opacity="0"/>
</linearGradient>
<linearGradient id="paint12_linear_165_261" x1="6570.77" y1="-5665.07" x2="3528.21" y2="-5782.43" gradientUnits="userSpaceOnUse">
<stop/>
<stop offset="0.99" stop-opacity="0"/>
</linearGradient>
<linearGradient id="paint13_linear_165_261" x1="7534.41" y1="-1722.13" x2="4992.42" y2="-1808.95" gradientUnits="userSpaceOnUse">
<stop/>
<stop offset="0.99" stop-opacity="0"/>
</linearGradient>
<linearGradient id="paint14_linear_165_261" x1="2557.06" y1="626.576" x2="2464.17" y2="1085.43" gradientUnits="userSpaceOnUse">
<stop/>
<stop offset="0.99" stop-opacity="0"/>
</linearGradient>
<linearGradient id="paint15_linear_165_261" x1="73.4633" y1="-18969.2" x2="-140.125" y2="-17655.1" gradientUnits="userSpaceOnUse">
<stop/>
<stop offset="0.99" stop-opacity="0"/>
</linearGradient>
<linearGradient id="paint16_linear_165_261" x1="151.216" y1="2734.86" x2="2965.79" y2="2734.86" gradientUnits="userSpaceOnUse">
<stop stop-color="#ECC4D7"/>
<stop offset="0.42" stop-color="#EFD4D1"/>
<stop offset="1" stop-color="#F2EAC9"/>
</linearGradient>
<linearGradient id="paint17_linear_165_261" x1="2740.94" y1="-1843.97" x2="5348.56" y2="-1843.97" gradientUnits="userSpaceOnUse">
<stop stop-color="#ECC4D7"/>
<stop offset="0.42" stop-color="#EFD4D1"/>
<stop offset="1" stop-color="#F2EAC9"/>
</linearGradient>
<linearGradient id="paint18_linear_165_261" x1="2754.61" y1="-529.284" x2="4813.28" y2="-529.284" gradientUnits="userSpaceOnUse">
<stop stop-color="#ECC4D7"/>
<stop offset="0.42" stop-color="#EFD4D1"/>
<stop offset="1" stop-color="#F2EAC9"/>
</linearGradient>
<linearGradient id="paint19_linear_165_261" x1="14018" y1="8202.58" x2="4263.89" y2="14684.8" gradientUnits="userSpaceOnUse">
<stop stop-color="#362958" stop-opacity="0.501"/>
<stop offset="1" stop-color="#34313D" stop-opacity="0"/>
</linearGradient>
<linearGradient id="paint20_linear_165_261" x1="2917.13" y1="-23226.1" x2="2837.15" y2="-23255.6" gradientUnits="userSpaceOnUse">
<stop/>
<stop offset="0.99" stop-opacity="0"/>
</linearGradient>
<clipPath id="clip0_165_261">
<rect width="503" height="331" fill="white"/>
</clipPath>
</defs>
</svg>
